<svg width="26" height="25" viewBox="0 0 26 25" fill="none" xmlns="http://www.w3.org/2000/svg">
<path d="M13.0001 2.08334C10.8575 2.08334 8.76294 2.69427 6.98141 3.83887C5.19988 4.98347 3.81134 6.61033 2.99139 8.51372C2.17144 10.4171 1.95691 12.5116 2.37491 14.5322C2.79292 16.5528 3.82469 18.4089 5.33976 19.8657C6.85483 21.3225 8.78515 22.3146 10.8866 22.7165C12.9881 23.1185 15.1663 22.9122 17.1458 22.1238C19.1254 21.3353 20.8173 20.0002 22.0077 18.2872C23.1981 16.5742 23.8334 14.5602 23.8334 12.5C23.8334 11.1321 23.5532 9.77753 23.0088 8.51372C22.4644 7.24992 21.6664 6.10159 20.6604 5.13431C19.6544 4.16704 18.4602 3.39975 17.1458 2.87627C15.8315 2.35278 14.4227 2.08334 13.0001 2.08334ZM13.0001 20.8333C11.286 20.8333 9.61037 20.3446 8.18514 19.4289C6.75992 18.5132 5.64909 17.2118 4.99313 15.689C4.33717 14.1663 4.16554 12.4908 4.49995 10.8743C4.83435 9.25775 5.65977 7.77289 6.87183 6.60745C8.08388 5.44202 9.62813 4.64834 11.3093 4.3268C12.9905 4.00526 14.733 4.17028 16.3167 4.80101C17.9003 5.43174 19.2538 6.49985 20.2062 7.87026C21.1585 9.24067 21.6667 10.8518 21.6667 12.5C21.6667 14.7101 20.7537 16.8298 19.1283 18.3926C17.503 19.9554 15.2986 20.8333 13.0001 20.8333Z" fill="#C4C4C4"/>
<path d="M11.3968 12.2708C11.7502 12.2018 12.0665 12.0139 12.2888 11.7409C12.5112 11.4679 12.6251 11.1277 12.6102 10.7813C12.6102 9.73959 11.776 9.11459 10.5085 9.11459H7.5835V15.8854H10.5085C11.9168 15.8333 13.0002 15.1354 13.0002 13.9271C13.0103 13.7166 12.9767 13.5062 12.9012 13.3084C12.8257 13.1105 12.7099 12.9292 12.5606 12.7749C12.4113 12.6206 12.2314 12.4966 12.0316 12.41C11.8317 12.3235 11.6159 12.2762 11.3968 12.2708ZM8.9485 10.0729H10.1943C10.8443 10.0729 11.2235 10.4063 11.2235 10.9583C11.2235 11.5104 10.8118 11.8854 9.86933 11.8854H8.9485V10.0729ZM10.0318 14.8333H8.9485V12.8125H10.281C11.0935 12.8125 11.5485 13.2083 11.5485 13.8542C11.5485 14.5 11.0935 14.8333 9.9885 14.8333H10.0318ZM15.9793 10.7292C15.6508 10.7029 15.3203 10.7452 15.0104 10.8532C14.7005 10.9613 14.4186 11.1325 14.184 11.3551C13.9494 11.5777 13.7676 11.8465 13.6512 12.143C13.5347 12.4395 13.4863 12.7567 13.5093 13.0729V13.5417C13.4827 13.8669 13.5302 14.1938 13.6486 14.4995C13.7671 14.8052 13.9535 15.0824 14.195 15.3115C14.4364 15.5407 14.727 15.7164 15.0465 15.8263C15.3659 15.9363 15.7065 15.9778 16.0443 15.9479C16.5791 16.009 17.1183 15.8764 17.557 15.576C17.9956 15.2756 18.3021 14.8288 18.4168 14.3229H17.106C17.0382 14.5396 16.8912 14.7254 16.6921 14.846C16.493 14.9666 16.2552 15.0139 16.0227 14.9792C15.857 14.9832 15.6925 14.953 15.54 14.8906C15.3875 14.8283 15.2508 14.7352 15.1389 14.6178C15.027 14.5003 14.9425 14.3611 14.8913 14.2097C14.8401 14.0582 14.8232 13.8979 14.8418 13.7396V13.5938H18.4168V13.1042C18.4423 12.7887 18.3971 12.4717 18.284 12.1745C18.171 11.8773 17.9929 11.607 17.7618 11.3818C17.5306 11.1566 17.2519 10.9817 16.9443 10.8692C16.6368 10.7566 16.3077 10.7088 15.9793 10.7292ZM17.0627 12.8125H14.8743C14.8608 12.668 14.8787 12.5224 14.927 12.385C14.9754 12.2476 15.053 12.1214 15.155 12.0146C15.257 11.9077 15.381 11.8224 15.5193 11.7643C15.6575 11.7062 15.8068 11.6765 15.9577 11.6771C16.1085 11.6765 16.2578 11.7062 16.3961 11.7643C16.5343 11.8224 16.6584 11.9077 16.7603 12.0146C16.8623 12.1214 16.94 12.2476 16.9883 12.385C17.0366 12.5224 17.0546 12.668 17.041 12.8125H17.0627ZM14.3543 9.58334H17.6043V10.1042H14.3543V9.58334Z" fill="#C4C4C4"/>
</svg>
