<svg width="22" height="22" viewBox="0 0 22 22" fill="none" xmlns="http://www.w3.org/2000/svg">
<g clip-path="url(#clip0_643_2)">
<path d="M13.0312 18.2188C12.2979 18.2188 11.5646 18.1385 10.8313 17.9781C10.0979 17.8177 9.44097 17.6076 8.86042 17.3479H5.58333C4.31528 17.3479 3.23438 16.901 2.34063 16.0073C1.44688 15.1135 1 14.0326 1 12.7646C1 11.8479 1.25208 11.0076 1.75625 10.2438C2.26042 9.47986 2.93264 8.92222 3.77292 8.57083C3.84931 6.75278 4.51389 5.02639 5.76667 3.39167C7.01944 1.75694 8.65417 0.679861 10.6708 0.160417C10.7931 0.129861 10.9382 0.0954861 11.1062 0.0572917C11.2743 0.0190972 11.4118 0 11.5188 0C11.7785 0 11.9847 0.0916666 12.1375 0.275C12.2903 0.458333 12.3667 0.672222 12.3667 0.916667C12.3667 0.9625 12.359 1.01215 12.3438 1.06562C12.3285 1.1191 12.3132 1.16875 12.2979 1.21458C12.0993 1.73403 11.9618 2.27639 11.8854 2.84167C11.809 3.40694 11.7708 3.96458 11.7708 4.51458C11.7708 6.69931 12.4965 8.67778 13.9479 10.45C15.3993 12.2222 17.2326 13.2917 19.4479 13.6583C19.6771 13.6889 19.8566 13.7729 19.9865 13.9104C20.1163 14.0479 20.1812 14.2083 20.1812 14.3917C20.1812 14.4986 20.1622 14.5979 20.124 14.6896C20.0858 14.7813 20.0285 14.8729 19.9521 14.9646C19.1271 15.9271 18.092 16.7101 16.8469 17.3135C15.6017 17.917 14.3299 18.2188 13.0312 18.2188ZM5.58333 15.9729H9.70833C10.2125 15.9729 10.6441 15.7934 11.0031 15.4344C11.3622 15.0753 11.5417 14.6438 11.5417 14.1396C11.5417 13.6354 11.3622 13.2038 11.0031 12.8448C10.6441 12.4858 10.2125 12.3063 9.70833 12.3063H8.72292C8.41736 11.3743 8.0125 10.683 7.50833 10.2323C7.00417 9.7816 6.3625 9.55625 5.58333 9.55625C4.69722 9.55625 3.94097 9.86944 3.31458 10.4958C2.68819 11.1222 2.375 11.8785 2.375 12.7646C2.375 13.6507 2.68819 14.4069 3.31458 15.0333C3.94097 15.6597 4.69722 15.9729 5.58333 15.9729ZM11.5875 16.7292C11.7556 16.7597 11.9771 16.7865 12.2521 16.8094C12.5271 16.8323 12.7868 16.8438 13.0312 16.8438C13.9937 16.8438 14.9486 16.6375 15.8958 16.225C16.8431 15.8125 17.6069 15.3389 18.1875 14.8042C15.8653 14.0708 13.9861 12.776 12.55 10.9198C11.1139 9.06354 10.3958 6.92847 10.3958 4.51458C10.3958 4.13264 10.434 3.64375 10.5104 3.04792C10.5868 2.45208 10.6632 1.97083 10.7396 1.60417C9.12014 2.23056 7.82535 3.11667 6.85521 4.2625C5.88507 5.40833 5.33125 6.72222 5.19375 8.20417C5.95764 8.09722 6.76736 8.26146 7.62292 8.69688C8.47847 9.13229 9.14306 9.87708 9.61667 10.9313C10.4875 10.9618 11.2552 11.2865 11.9198 11.9052C12.5844 12.524 12.9167 13.2688 12.9167 14.1396C12.9167 14.6743 12.7944 15.1747 12.55 15.6406C12.3056 16.1066 11.9847 16.4694 11.5875 16.7292Z" fill="#C4C4C4"/>
</g>
<defs>
<clipPath id="clip0_643_2">
<rect width="22" height="22" fill="white"/>
</clipPath>
</defs>
</svg>
