<svg width="26" height="25" viewBox="0 0 26 25" fill="none" xmlns="http://www.w3.org/2000/svg">
<path d="M13.0001 0.595245C6.16209 0.595245 0.619141 5.92501 0.619141 12.5C0.619141 19.075 6.16209 24.4048 13.0001 24.4048C19.8381 24.4048 25.381 19.075 25.381 12.5C25.381 5.92501 19.8381 0.595245 13.0001 0.595245ZM13.0001 2.32025C15.6973 2.32025 18.1592 3.29048 20.0288 4.88691C18.6551 6.62917 16.5683 7.78929 14.4771 8.57441C13.2934 6.5014 11.9667 4.50687 10.506 2.60417C11.3229 2.41483 12.1604 2.31952 13.0007 2.32025H13.0001ZM8.4959 3.28453C9.87638 5.27025 11.2135 7.11132 12.4349 9.19524C9.34586 9.96489 5.85505 10.4268 2.63043 10.4345C3.31014 7.2631 5.52571 4.62977 8.4959 3.28513V3.28453ZM21.2031 6.06429C22.7329 7.86189 23.5745 10.11 23.587 12.4327C21.1381 11.9685 18.7028 11.847 16.2229 12.0875C15.9443 11.4191 15.6063 10.7839 15.2825 10.0994C17.4201 9.27024 19.7056 7.8512 21.2031 6.0637V6.06429ZM13.2948 10.7702C13.5597 11.3119 13.8668 11.8869 14.1552 12.4744C10.7071 13.9363 7.03928 15.8899 5.13571 19.3149C3.30829 17.3704 2.3344 14.8213 2.41809 12.2018C6.11071 12.1851 9.73524 11.7411 13.2948 10.7702ZM18.8897 13.5458C20.4304 13.5462 21.9647 13.7362 23.4552 14.1113C23.2254 15.49 22.703 16.8085 21.9206 17.9848C21.1381 19.1611 20.1124 20.17 18.907 20.9488C18.3388 18.4637 17.7971 16.0857 16.8394 13.6881C17.5182 13.593 18.2032 13.5453 18.8891 13.5452L18.8897 13.5458ZM23.5103 13.7304C23.5029 13.7887 23.496 13.8458 23.4874 13.903C23.496 13.8452 23.5035 13.7881 23.5103 13.7304ZM14.8808 14.153C15.8564 16.5774 16.6221 19.2619 17.136 21.8744C15.828 22.408 14.4215 22.6822 13.0007 22.6804C10.647 22.6836 8.35988 21.9292 6.50381 20.5375C8.421 17.547 11.3906 15.2839 14.8801 14.1536L14.8808 14.153Z" fill="#C4C4C4"/>
</svg>
