<svg width="25" height="25" viewBox="0 0 25 25" fill="none" xmlns="http://www.w3.org/2000/svg">
<path d="M22.2222 4.16666H2.7778C2.40945 4.16666 2.05618 4.31299 1.79571 4.57345C1.53524 4.83392 1.38892 5.18719 1.38892 5.55555V19.4444C1.38892 19.8128 1.53524 20.1661 1.79571 20.4265C2.05618 20.687 2.40945 20.8333 2.7778 20.8333H22.2222C22.5906 20.8333 22.9439 20.687 23.2043 20.4265C23.4648 20.1661 23.6111 19.8128 23.6111 19.4444V5.55555C23.6111 5.18719 23.4648 4.83392 23.2043 4.57345C22.9439 4.31299 22.5906 4.16666 22.2222 4.16666ZM21.1528 19.4444H3.93058L8.79169 14.4167L7.79169 13.4514L2.7778 18.6389V6.6111L11.4097 15.2014C11.67 15.4601 12.022 15.6053 12.3889 15.6053C12.7558 15.6053 13.1079 15.4601 13.3681 15.2014L22.2222 6.39582V18.5486L17.1111 13.4375L16.132 14.4167L21.1528 19.4444ZM3.68753 5.55555H21.0972L12.3889 14.2153L3.68753 5.55555Z" fill="#C4C4C4"/>
</svg>
