<svg width="25" height="25" viewBox="0 0 25 25" fill="none" xmlns="http://www.w3.org/2000/svg">
<path d="M12.4999 20.8333C14.7101 20.8333 16.8297 19.9554 18.3925 18.3926C19.9553 16.8298 20.8333 14.7101 20.8333 12.5C20.8333 10.2899 19.9553 8.17026 18.3925 6.60745C16.8297 5.04465 14.7101 4.16668 12.4999 4.16668C10.2898 4.16668 8.17017 5.04465 6.60736 6.60745C5.04456 8.17026 4.16659 10.2899 4.16659 12.5C4.16659 14.7101 5.04456 16.8298 6.60736 18.3926C8.17017 19.9554 10.2898 20.8333 12.4999 20.8333ZM12.4999 22.9167C6.74679 22.9167 2.08325 18.2531 2.08325 12.5C2.08325 6.74689 6.74679 2.08334 12.4999 2.08334C18.253 2.08334 22.9166 6.74689 22.9166 12.5C22.9166 18.2531 18.253 22.9167 12.4999 22.9167Z" fill="#C4C4C4"/>
<path d="M16.0697 15.7792V10.5709H10.8614V10.2459C10.8614 9.70731 11.2989 9.26877 11.8385 9.26877H12.8145V7.31564H11.8385C11.0616 7.31647 10.3168 7.62545 9.76744 8.17479C9.2181 8.72414 8.90911 9.46897 8.90828 10.2459V10.5709H7.6062V12.524H8.90828V15.7792H7.6062V17.7323H12.1635V15.7792H10.8614V12.524H14.1354V15.7792H12.8145V17.7323H17.3718V15.7792H16.0697Z" fill="#C4C4C4"/>
<path d="M15.0019 9.34585C15.5778 9.34585 16.0446 8.87902 16.0446 8.30315C16.0446 7.72727 15.5778 7.26044 15.0019 7.26044C14.4261 7.26044 13.9592 7.72727 13.9592 8.30315C13.9592 8.87902 14.4261 9.34585 15.0019 9.34585Z" fill="#C4C4C4"/>
</svg>
