<svg width="26" height="25" viewBox="0 0 26 25" fill="none" xmlns="http://www.w3.org/2000/svg">
<path d="M18.4166 13.6771V17.5281H16.095V13.9344C16.095 13.0323 15.7592 12.4167 14.9185 12.4167C14.2772 12.4167 13.8948 12.8312 13.7268 13.2333C13.6662 13.3771 13.6499 13.5771 13.6499 13.7771V17.5281H11.3273C11.3273 17.5281 11.3587 11.4427 11.3273 10.8125H13.6499V11.7635L13.6348 11.7854H13.6499V11.7646C13.9587 11.3062 14.509 10.6542 15.7429 10.6542C17.2704 10.6542 18.4166 11.6146 18.4166 13.6771ZM8.89734 7.57394C8.10325 7.57394 7.58325 8.07603 7.58325 8.73436C7.58325 9.38019 8.08809 9.89582 8.867 9.89582H8.88217C9.6925 9.89582 10.1963 9.37915 10.1963 8.73436C10.1811 8.07603 9.6925 7.57394 8.89734 7.57394ZM7.72084 17.5281H10.0435V10.8125H7.72084V17.5281Z" fill="#C4C4C4"/>
<path d="M13.0001 20.8333C15.2986 20.8333 17.503 19.9554 19.1283 18.3926C20.7537 16.8298 21.6667 14.7101 21.6667 12.5C21.6667 10.2899 20.7537 8.17026 19.1283 6.60745C17.503 5.04465 15.2986 4.16668 13.0001 4.16668C10.7015 4.16668 8.49714 5.04465 6.87182 6.60745C5.24651 8.17026 4.33341 10.2899 4.33341 12.5C4.33341 14.7101 5.24651 16.8298 6.87182 18.3926C8.49714 19.9554 10.7015 20.8333 13.0001 20.8333ZM13.0001 22.9167C7.01683 22.9167 2.16675 18.2531 2.16675 12.5C2.16675 6.74689 7.01683 2.08334 13.0001 2.08334C18.9833 2.08334 23.8334 6.74689 23.8334 12.5C23.8334 18.2531 18.9833 22.9167 13.0001 22.9167Z" fill="#C4C4C4"/>
</svg>
