<svg width="50" height="50" viewBox="0 0 50 50" fill="none" xmlns="http://www.w3.org/2000/svg">
<path d="M21.915 13.8424C21.7397 13.6461 21.5131 13.3963 21.3659 13.2483C19.0444 10.9139 18.0389 10.1356 15.2881 10.1403C11.9297 10.146 8.98717 13.5159 8.98717 13.5159C8.98717 13.5159 7.95767 14.5154 6.91162 16.0763C6.17002 17.1828 5.32522 18.516 4.60356 19.8411C3.88932 21.1526 3.32885 22.6541 3.32885 22.6541C3.32885 22.6541 2.50433 24.3363 2.19855 26.8098C1.88425 29.3522 1.77122 31.3727 3.20261 33.1964C4.63399 35.0202 8.32162 33.6011 8.32162 33.6011C8.32162 33.6011 9.93487 32.9976 12.4468 31.0677C14.9587 29.1378 18.3106 25.8817 18.3693 25.8817C18.4281 25.8817 22.2787 21.9174 22.2787 21.9174C22.2787 21.9174 25.4745 18.4815 28.215 14.7599C30.9556 11.0384 33.2409 7.03122 33.2409 7.03122C33.1402 5.00253 27.2475 5 27.2475 5C27.2475 5 25.097 9.40002 21.7735 14.0395C21.4667 14.4678 21.1403 14.9002 20.8181 15.3339C15.9144 21.9354 9.40682 28.8865 6.38357 27.5686C2.98639 26.0876 11.4446 13.5852 15.8253 13.8554C17.1617 13.9378 18.7028 15.2338 19.9015 16.567" fill="#C4C4C4"/>
<path d="M23.1537 21.1953L23.5643 21.8041L29.0266 30.6514L36.995 41.7208C36.995 41.7208 39.0162 44.8286 40.4086 45.5867C41.3955 46.1241 47.404 45.0533 47.9266 44.0536C48.2103 43.5107 43.7837 42.0226 43.7837 42.0226L36.3621 32.9221L30.5085 24.7963L23.0308 15.1238C23.0308 15.1238 22.8897 14.9552 22.7219 14.757C22.4766 14.4672 22.1739 14.1143 22.1711 14.1332C22.1711 14.1332 22.0608 14.0071 21.915 13.844" fill="#C4C4C4"/>
<path d="M35.7968 5.8789C37.2706 6.62525 39.6521 6.4857 40.202 6.6137C40.7062 6.7311 39.8348 8.34415 39.3631 9.6933C39.2703 9.95885 39.101 10.2154 39.101 10.2154C39.101 10.2154 38.8134 10.8148 38.0834 11.9101C36.7765 13.8706 36.0657 14.3644 34.1356 17.5354C33.041 19.3338 31.1565 22.0755 30.0778 24.419C27.5859 29.8331 23.8104 36.7635 24.6204 39.5375C24.6805 39.7433 21.1651 38.6886 19.6715 40.0302C19.57 40.1214 20.0736 36.5916 21.6668 32.0571C22.493 29.7055 23.9033 27.0505 25.058 24.5605C28.4393 17.269 30.7433 15.7196 33.3754 11.0898C36.0074 6.46005 34.7834 5.36573 35.7968 5.8789Z" fill="#C4C4C4"/>
</svg>
