<svg width="1250" height="500" viewBox="0 0 1250 500" fill="none" xmlns="http://www.w3.org/2000/svg">
<rect width="1250" height="500" fill="#C4C4C4"/>
<path d="M480.934 232H485.934V267H480.934V232ZM528.862 240.25C532.195 240.25 534.829 241.217 536.762 243.15C538.729 245.083 539.712 247.95 539.712 251.75V267H534.912V252.3C534.912 249.733 534.312 247.8 533.112 246.5C531.945 245.2 530.262 244.55 528.062 244.55C525.629 244.55 523.695 245.317 522.262 246.85C520.829 248.35 520.112 250.517 520.112 253.35V267H515.312V252.3C515.312 249.733 514.712 247.8 513.512 246.5C512.345 245.2 510.662 244.55 508.462 244.55C506.029 244.55 504.095 245.317 502.662 246.85C501.229 248.35 500.512 250.517 500.512 253.35V267H495.712V240.5H500.312V244.45C501.279 243.083 502.545 242.05 504.112 241.35C505.679 240.617 507.462 240.25 509.462 240.25C511.529 240.25 513.362 240.667 514.962 241.5C516.562 242.333 517.795 243.55 518.662 245.15C519.662 243.617 521.045 242.417 522.812 241.55C524.612 240.683 526.629 240.25 528.862 240.25ZM558.194 240.25C561.861 240.25 564.661 241.15 566.594 242.95C568.561 244.75 569.544 247.433 569.544 251V267H564.994V263.5C564.194 264.733 563.044 265.683 561.544 266.35C560.077 266.983 558.327 267.3 556.294 267.3C553.327 267.3 550.944 266.583 549.144 265.15C547.377 263.717 546.494 261.833 546.494 259.5C546.494 257.167 547.344 255.3 549.044 253.9C550.744 252.467 553.444 251.75 557.144 251.75H564.744V250.8C564.744 248.733 564.144 247.15 562.944 246.05C561.744 244.95 559.977 244.4 557.644 244.4C556.077 244.4 554.544 244.667 553.044 245.2C551.544 245.7 550.277 246.383 549.244 247.25L547.244 243.65C548.611 242.55 550.244 241.717 552.144 241.15C554.044 240.55 556.061 240.25 558.194 240.25ZM557.094 263.6C558.927 263.6 560.511 263.2 561.844 262.4C563.177 261.567 564.144 260.4 564.744 258.9V255.2H557.344C553.277 255.2 551.244 256.567 551.244 259.3C551.244 260.633 551.761 261.683 552.794 262.45C553.827 263.217 555.261 263.6 557.094 263.6ZM603.923 240.5V263.4C603.923 268.033 602.773 271.45 600.473 273.65C598.173 275.883 594.74 277 590.173 277C587.673 277 585.29 276.65 583.023 275.95C580.757 275.283 578.923 274.317 577.523 273.05L579.823 269.35C581.057 270.417 582.573 271.25 584.373 271.85C586.207 272.483 588.09 272.8 590.023 272.8C593.123 272.8 595.407 272.067 596.873 270.6C598.373 269.133 599.123 266.9 599.123 263.9V261.8C597.99 263.167 596.59 264.2 594.923 264.9C593.29 265.567 591.507 265.9 589.573 265.9C587.04 265.9 584.74 265.367 582.673 264.3C580.64 263.2 579.04 261.683 577.873 259.75C576.707 257.783 576.123 255.55 576.123 253.05C576.123 250.55 576.707 248.333 577.873 246.4C579.04 244.433 580.64 242.917 582.673 241.85C584.74 240.783 587.04 240.25 589.573 240.25C591.573 240.25 593.423 240.617 595.123 241.35C596.857 242.083 598.273 243.167 599.373 244.6V240.5H603.923ZM590.123 261.7C591.857 261.7 593.407 261.333 594.773 260.6C596.173 259.867 597.257 258.85 598.023 257.55C598.823 256.217 599.223 254.717 599.223 253.05C599.223 250.483 598.373 248.417 596.673 246.85C594.973 245.25 592.79 244.45 590.123 244.45C587.423 244.45 585.223 245.25 583.523 246.85C581.823 248.417 580.973 250.483 580.973 253.05C580.973 254.717 581.357 256.217 582.123 257.55C582.923 258.85 584.007 259.867 585.373 260.6C586.773 261.333 588.357 261.7 590.123 261.7ZM637.045 253.9C637.045 254.267 637.012 254.75 636.945 255.35H615.445C615.745 257.683 616.762 259.567 618.495 261C620.262 262.4 622.445 263.1 625.045 263.1C628.212 263.1 630.762 262.033 632.695 259.9L635.345 263C634.145 264.4 632.645 265.467 630.845 266.2C629.078 266.933 627.095 267.3 624.895 267.3C622.095 267.3 619.612 266.733 617.445 265.6C615.278 264.433 613.595 262.817 612.395 260.75C611.228 258.683 610.645 256.35 610.645 253.75C610.645 251.183 611.212 248.867 612.345 246.8C613.512 244.733 615.095 243.133 617.095 242C619.128 240.833 621.412 240.25 623.945 240.25C626.478 240.25 628.728 240.833 630.695 242C632.695 243.133 634.245 244.733 635.345 246.8C636.478 248.867 637.045 251.233 637.045 253.9ZM623.945 244.3C621.645 244.3 619.712 245 618.145 246.4C616.612 247.8 615.712 249.633 615.445 251.9H632.445C632.178 249.667 631.262 247.85 629.695 246.45C628.162 245.017 626.245 244.3 623.945 244.3ZM687.938 232V267H682.938V251.4H662.838V267H657.838V232H662.838V247.05H682.938V232H687.938ZM721.664 253.9C721.664 254.267 721.631 254.75 721.564 255.35H700.064C700.364 257.683 701.381 259.567 703.114 261C704.881 262.4 707.064 263.1 709.664 263.1C712.831 263.1 715.381 262.033 717.314 259.9L719.964 263C718.764 264.4 717.264 265.467 715.464 266.2C713.697 266.933 711.714 267.3 709.514 267.3C706.714 267.3 704.231 266.733 702.064 265.6C699.897 264.433 698.214 262.817 697.014 260.75C695.847 258.683 695.264 256.35 695.264 253.75C695.264 251.183 695.831 248.867 696.964 246.8C698.131 244.733 699.714 243.133 701.714 242C703.747 240.833 706.031 240.25 708.564 240.25C711.097 240.25 713.347 240.833 715.314 242C717.314 243.133 718.864 244.733 719.964 246.8C721.097 248.867 721.664 251.233 721.664 253.9ZM708.564 244.3C706.264 244.3 704.331 245 702.764 246.4C701.231 247.8 700.331 249.633 700.064 251.9H717.064C716.797 249.667 715.881 247.85 714.314 246.45C712.781 245.017 710.864 244.3 708.564 244.3ZM732.929 244.95C733.763 243.417 734.996 242.25 736.629 241.45C738.263 240.65 740.246 240.25 742.579 240.25V244.9C742.313 244.867 741.946 244.85 741.479 244.85C738.879 244.85 736.829 245.633 735.329 247.2C733.863 248.733 733.129 250.933 733.129 253.8V267H728.329V240.5H732.929V244.95ZM772.201 253.9C772.201 254.267 772.168 254.75 772.101 255.35H750.601C750.901 257.683 751.918 259.567 753.651 261C755.418 262.4 757.601 263.1 760.201 263.1C763.368 263.1 765.918 262.033 767.851 259.9L770.501 263C769.301 264.4 767.801 265.467 766.001 266.2C764.235 266.933 762.251 267.3 760.051 267.3C757.251 267.3 754.768 266.733 752.601 265.6C750.435 264.433 748.751 262.817 747.551 260.75C746.385 258.683 745.801 256.35 745.801 253.75C745.801 251.183 746.368 248.867 747.501 246.8C748.668 244.733 750.251 243.133 752.251 242C754.285 240.833 756.568 240.25 759.101 240.25C761.635 240.25 763.885 240.833 765.851 242C767.851 243.133 769.401 244.733 770.501 246.8C771.635 248.867 772.201 251.233 772.201 253.9ZM759.101 244.3C756.801 244.3 754.868 245 753.301 246.4C751.768 247.8 750.868 249.633 750.601 251.9H767.601C767.335 249.667 766.418 247.85 764.851 246.45C763.318 245.017 761.401 244.3 759.101 244.3Z" fill="black"/>
</svg>
