<svg width="567" height="300" viewBox="0 0 567 300" fill="none" xmlns="http://www.w3.org/2000/svg">
<path d="M556 1H232.031C224.633 1 219.797 8.75382 223.05 15.3977L359.174 293.398C360.853 296.826 364.337 299 368.155 299H556C561.523 299 566 294.523 566 289V11C566 5.47715 561.523 1 556 1Z" fill="white" fill-opacity="0.2" stroke="#C4C4C4"/>
<path d="M11 299H334.969C342.367 299 347.203 291.246 343.95 284.602L207.826 6.60236C206.147 3.17365 202.663 1 198.845 1H11C5.47717 1 1 5.47714 1 11V289C1 294.523 5.47714 299 11 299Z" fill="white" fill-opacity="0.2" stroke="#C4C4C4"/>
</svg>
