<svg width="22" height="22" viewBox="0 0 22 22" fill="none" xmlns="http://www.w3.org/2000/svg">
<path d="M12.948 20.1208C12.2147 20.1208 11.4813 20.0406 10.748 19.8802C10.0147 19.7198 9.35772 19.5097 8.77716 19.25H5.50008C4.23203 19.25 3.15112 18.8031 2.25737 17.9094C1.36362 17.0156 0.916748 15.9347 0.916748 14.6667C0.916748 13.75 1.16883 12.9097 1.673 12.1458C2.17716 11.3819 2.84939 10.8243 3.68966 10.4729C3.76605 8.65485 4.43064 6.92846 5.68341 5.29374C6.93619 3.65901 8.57092 2.58193 10.5876 2.06249C10.7098 2.03193 10.8549 1.99756 11.023 1.95936C11.1911 1.92117 11.3286 1.90207 11.4355 1.90207C11.6952 1.90207 11.9015 1.99374 12.0542 2.17707C12.207 2.3604 12.2834 2.57429 12.2834 2.81874C12.2834 2.86457 12.2758 2.91422 12.2605 2.96769C12.2452 3.02117 12.2299 3.07082 12.2147 3.11665C12.0161 3.6361 11.8786 4.17846 11.8022 4.74374C11.7258 5.30901 11.6876 5.86665 11.6876 6.41665C11.6876 8.60138 12.4133 10.5798 13.8647 12.3521C15.3161 14.1243 17.1494 15.1937 19.3647 15.5604C19.5938 15.591 19.7733 15.675 19.9032 15.8125C20.0331 15.95 20.098 16.1104 20.098 16.2937C20.098 16.4007 20.0789 16.5 20.0407 16.5917C20.0025 16.6833 19.9452 16.775 19.8688 16.8667C19.0438 17.8292 18.0088 18.6121 16.7636 19.2156C15.5185 19.8191 14.2466 20.1208 12.948 20.1208ZM5.50008 17.875H9.62508C10.1292 17.875 10.5608 17.6955 10.9199 17.3364C11.2789 16.9774 11.4584 16.5458 11.4584 16.0417C11.4584 15.5375 11.2789 15.1059 10.9199 14.7469C10.5608 14.3878 10.1292 14.2083 9.62508 14.2083H8.63967C8.33411 13.2764 7.92925 12.5851 7.42508 12.1344C6.92092 11.6837 6.27925 11.4583 5.50008 11.4583C4.61397 11.4583 3.85772 11.7715 3.23133 12.3979C2.60494 13.0243 2.29175 13.7805 2.29175 14.6667C2.29175 15.5528 2.60494 16.309 3.23133 16.9354C3.85772 17.5618 4.61397 17.875 5.50008 17.875ZM11.5042 18.6312C11.6723 18.6618 11.8938 18.6885 12.1688 18.7114C12.4438 18.7344 12.7036 18.7458 12.948 18.7458C13.9105 18.7458 14.8654 18.5396 15.8126 18.1271C16.7598 17.7146 17.5237 17.241 18.1042 16.7062C15.782 15.9729 13.9029 14.6781 12.4667 12.8219C11.0306 10.9656 10.3126 8.83054 10.3126 6.41665C10.3126 6.03471 10.3508 5.54582 10.4272 4.94999C10.5036 4.35415 10.5799 3.8729 10.6563 3.50624C9.03689 4.13262 7.74209 5.01874 6.77196 6.16457C5.80182 7.3104 5.248 8.62429 5.1105 10.1062C5.87439 9.99929 6.68411 10.1635 7.53967 10.5989C8.39522 11.0344 9.0598 11.7792 9.53341 12.8333C10.4042 12.8639 11.172 13.1885 11.8365 13.8073C12.5011 14.426 12.8334 15.1708 12.8334 16.0417C12.8334 16.5764 12.7112 17.0767 12.4667 17.5427C12.2223 18.0087 11.9015 18.3715 11.5042 18.6312Z" fill="#C4C4C4"/>
</svg>
